<?xml version="1.0" encoding="UTF-8" standalone="no"?>
<!DOCTYPE svg PUBLIC "-//W3C//DTD SVG 1.1//EN" "http://www.w3.org/Graphics/SVG/1.1/DTD/svg11.dtd">
<svg xmlns="http://www.w3.org/2000/svg" version="1.1" viewBox="0.00 0.00 1000.00 1000.00">
<path fill="#ffffff" d="
  M 380.44 105.37
  L 380.42 126.60
  A 0.34 0.34 0.0 0 1 380.08 126.94
  L 373.85 126.93
  A 0.34 0.34 0.0 0 1 373.51 126.59
  L 373.49 105.37
  A 0.34 0.34 0.0 0 0 373.15 105.03
  L 352.93 105.02
  A 0.34 0.34 0.0 0 1 352.59 104.68
  L 352.68 98.52
  A 0.34 0.34 0.0 0 1 353.02 98.18
  L 373.16 98.22
  A 0.34 0.34 0.0 0 0 373.50 97.88
  L 373.50 78.34
  A 0.34 0.34 0.0 0 1 373.84 78.00
  L 380.10 77.99
  A 0.34 0.34 0.0 0 1 380.44 78.33
  L 380.43 97.85
  A 0.34 0.34 0.0 0 0 380.77 98.19
  L 401.28 98.22
  A 0.34 0.34 0.0 0 1 401.62 98.56
  L 401.56 104.69
  A 0.34 0.34 0.0 0 1 401.22 105.03
  L 380.78 105.03
  A 0.34 0.34 0.0 0 0 380.44 105.37
  Z"
/>
<path fill="#ffffff" d="
  M 633.44 105.37
  L 633.42 126.59
  A 0.34 0.34 0.0 0 1 633.08 126.93
  L 626.85 126.93
  A 0.34 0.34 0.0 0 1 626.51 126.59
  L 626.49 105.37
  A 0.34 0.34 0.0 0 0 626.15 105.03
  L 605.92 105.02
  A 0.34 0.34 0.0 0 1 605.59 104.68
  L 605.68 98.52
  A 0.34 0.34 0.0 0 1 606.02 98.18
  L 626.16 98.22
  A 0.34 0.34 0.0 0 0 626.50 97.88
  L 626.50 78.34
  A 0.34 0.34 0.0 0 1 626.84 78.00
  L 633.10 77.99
  A 0.34 0.34 0.0 0 1 633.44 78.33
  L 633.43 97.86
  A 0.34 0.34 0.0 0 0 633.77 98.20
  L 654.28 98.22
  A 0.34 0.34 0.0 0 1 654.62 98.56
  L 654.57 104.69
  A 0.34 0.34 0.0 0 1 654.23 105.03
  L 633.78 105.03
  A 0.34 0.34 0.0 0 0 633.44 105.37
  Z"
/>
<path fill="#ffffff" d="
  M 442.28 365.43
  Q 441.87 334.69 441.30 313.53
  Q 440.23 273.39 440.17 251.12
  Q 440.16 249.13 438.08 249.20
  A 1.30 1.29 -28.7 0 1 437.28 248.97
  L 396.91 220.99
  A 3.86 3.84 17.4 0 1 395.25 217.83
  L 395.26 120.66
  A 0.33 0.33 0.0 0 1 395.59 120.33
  L 616.06 120.37
  A 0.44 0.44 0.0 0 1 616.50 120.81
  L 616.50 371.50
  Q 616.50 372.04 616.06 371.73
  L 600.39 360.86
  Q 600.01 360.60 600.01 361.05
  L 600.02 468.42
  A 2.66 2.66 0.0 0 0 601.20 470.63
  L 615.45 480.20
  A 2.13 2.13 0.0 0 1 616.39 481.85
  Q 616.56 484.45 616.55 487.23
  Q 616.45 624.36 616.54 765.03
  Q 616.54 767.55 614.88 769.21
  Q 560.65 823.46 501.98 882.12
  Q 501.24 882.86 500.20 882.86
  L 395.69 882.86
  A 0.42 0.42 0.0 0 1 395.27 882.44
  L 395.28 335.24
  Q 395.28 334.47 395.92 334.89
  Q 416.33 348.27 437.13 362.03
  C 438.71 363.07 440.36 364.33 441.69 365.68
  Q 442.29 366.28 442.28 365.43
  Z"
/>
<path fill="#ffffff" d="
  M 244.34 301.79
  Q 244.34 299.53 243.15 301.45
  Q 239.60 307.16 235.98 312.98
  C 235.47 313.78 235.08 314.73 234.89 315.66
  Q 234.73 316.44 234.44 315.70
  Q 234.05 314.70 234.04 313.64
  Q 233.98 302.04 234.00 290.21
  Q 234.00 287.81 235.17 285.82
  Q 247.71 264.45 260.10 243.11
  Q 260.31 242.75 260.73 242.75
  L 278.78 242.77
  A 0.45 0.45 0.0 0 1 279.16 243.45
  L 271.94 254.94
  A 5.24 5.21 -29.2 0 0 271.15 257.70
  L 271.13 355.57
  A 0.95 0.95 0.0 0 1 270.18 356.52
  L 245.27 356.50
  Q 244.28 356.50 244.28 355.52
  L 244.34 301.79
  Z"
/>
<path fill="#ffffff" d="
  M 340.58 330.03
  L 327.81 356.03
  A 0.88 0.87 12.9 0 1 327.02 356.52
  L 274.51 356.50
  A 0.69 0.69 0.0 0 1 273.82 355.76
  L 281.71 245.48
  Q 281.75 244.96 282.27 244.96
  L 357.99 245.07
  Q 358.66 245.07 358.66 245.74
  L 358.69 254.92
  Q 358.69 255.54 358.08 255.54
  L 308.77 255.64
  Q 308.17 255.64 308.12 256.23
  L 307.05 269.25
  A 0.72 0.71 -87.4 0 0 307.76 270.03
  L 357.99 270.03
  Q 358.62 270.03 358.63 270.66
  Q 358.83 279.22 358.69 291.02
  Q 358.65 293.95 357.59 296.13
  Q 354.13 303.26 349.53 312.15
  A 0.99 0.97 34.0 0 0 349.77 313.35
  L 357.63 319.86
  A 3.00 2.99 20.0 0 1 358.71 322.16
  L 358.69 344.09
  A 0.25 0.24 -69.8 0 1 358.29 344.28
  L 341.38 329.87
  Q 340.87 329.44 340.58 330.03
  Z
  M 329.66 296.32
  A 0.39 0.39 0.0 0 0 330.25 296.20
  L 337.86 281.60
  A 0.39 0.39 0.0 0 0 337.52 281.03
  L 312.34 280.99
  A 0.39 0.39 0.0 0 0 312.09 281.68
  L 329.66 296.32
  Z
  M 321.70 313.56
  A 0.34 0.34 0.0 0 0 321.62 313.15
  L 305.48 299.46
  A 0.34 0.34 0.0 0 0 304.92 299.70
  L 301.02 353.80
  A 0.34 0.34 0.0 0 0 301.67 353.98
  L 321.70 313.56
  Z"
/>
<path fill="#ffffff" d="
  M 289.32 542.12
  L 289.09 542.29
  Q 288.77 542.52 288.37 542.52
  L 238.79 542.57
  A 1.28 1.28 0.0 0 1 237.51 541.29
  L 237.50 496.69
  Q 237.50 496.13 238.06 496.13
  L 290.83 496.12
  A 0.20 0.20 0.0 0 0 291.03 495.92
  L 291.01 490.94
  Q 291.01 490.62 290.69 490.62
  L 239.91 490.63
  A 1.23 1.23 0.0 0 1 238.68 489.41
  L 238.60 480.60
  A 1.81 1.80 -0.3 0 1 240.40 478.79
  L 289.90 478.64
  Q 290.95 478.64 291.13 477.61
  L 291.20 477.24
  A 0.48 0.48 0.0 0 0 290.81 476.69
  Q 289.19 476.39 287.50 476.37
  Q 263.69 476.18 239.26 476.26
  Q 237.52 476.26 237.52 474.53
  L 237.49 462.79
  Q 237.49 462.25 238.03 462.25
  L 358.24 462.24
  A 0.51 0.50 0.0 0 1 358.75 462.74
  L 358.75 475.21
  A 1.14 1.14 0.0 0 1 357.60 476.35
  Q 339.45 476.18 320.50 476.31
  Q 315.31 476.35 310.59 476.75
  A 0.41 0.41 0.0 0 0 310.24 477.27
  L 310.33 477.57
  A 1.15 1.15 0.0 0 0 311.34 478.38
  Q 314.28 478.60 316.36 478.62
  Q 336.74 478.83 357.18 478.72
  Q 358.76 478.71 358.76 480.29
  L 358.74 490.01
  Q 358.74 490.63 358.12 490.63
  L 310.75 490.62
  Q 310.62 490.62 310.62 490.75
  L 310.64 495.82
  A 0.32 0.31 89.0 0 0 310.95 496.13
  L 358.14 496.12
  A 0.62 0.61 -90.0 0 1 358.75 496.74
  L 358.74 542.48
  A 0.34 0.34 0.0 0 1 358.40 542.82
  L 310.49 542.78
  Q 309.50 542.78 309.50 543.77
  L 309.51 545.69
  Q 309.51 546.37 310.19 546.37
  L 358.19 546.37
  Q 358.75 546.37 358.75 546.94
  L 358.75 558.19
  A 1.19 1.19 0.0 0 1 357.56 559.38
  L 310.25 559.37
  Q 309.37 559.37 309.38 560.25
  L 309.39 560.71
  Q 309.41 561.76 310.46 561.76
  L 357.26 561.76
  Q 358.76 561.76 358.75 563.26
  L 358.74 575.28
  A 0.52 0.52 0.0 0 1 358.22 575.80
  L 238.01 575.79
  Q 237.47 575.79 237.47 575.26
  L 237.51 563.27
  Q 237.52 561.81 238.98 561.80
  L 289.25 561.77
  Q 290.01 561.77 290.01 561.00
  L 290.01 559.91
  Q 290.00 559.31 289.41 559.31
  L 239.56 559.35
  Q 237.51 559.35 237.51 557.31
  L 237.51 547.46
  A 1.03 1.03 0.0 0 1 238.54 546.43
  L 289.45 546.34
  Q 289.99 546.34 289.99 545.80
  L 290.01 542.47
  Q 290.01 541.60 289.32 542.12
  Z
  M 346.84 509.39
  A 0.27 0.27 0.0 0 0 346.57 509.12
  L 254.07 509.12
  A 0.27 0.27 0.0 0 0 253.80 509.39
  L 253.80 524.35
  A 0.27 0.27 0.0 0 0 254.07 524.62
  L 346.57 524.62
  A 0.27 0.27 0.0 0 0 346.84 524.35
  L 346.84 509.39
  Z"
/>
<path fill="#ffffff" d="
  M 286.74 777.51
  L 286.74 707.47
  Q 286.74 706.95 286.22 706.95
  L 237.28 706.93
  Q 236.38 706.93 236.38 706.03
  L 236.37 693.20
  Q 236.37 691.77 237.80 691.77
  L 355.20 691.77
  A 1.31 1.30 -0.0 0 1 356.51 693.07
  L 356.51 705.97
  Q 356.51 706.94 355.54 706.94
  L 310.04 706.94
  Q 309.53 706.94 309.53 707.46
  L 309.52 777.51
  Q 309.52 778.00 310.01 778.00
  L 355.51 778.01
  Q 356.51 778.01 356.51 779.01
  L 356.51 794.62
  Q 356.51 796.50 354.63 796.50
  L 236.87 796.50
  A 1.63 1.62 -90.0 0 1 235.25 794.87
  L 235.26 779.00
  A 1.00 0.99 -89.7 0 1 236.25 778.01
  L 286.25 778.00
  Q 286.74 778.00 286.74 777.51
  Z"
/>
<path fill="#ffffff" d="
  M 380.44 910.36
  L 380.42 931.60
  A 0.34 0.34 0.0 0 1 380.08 931.94
  L 373.85 931.93
  A 0.34 0.34 0.0 0 1 373.51 931.59
  L 373.49 910.37
  A 0.34 0.34 0.0 0 0 373.15 910.03
  L 352.92 910.02
  A 0.34 0.34 0.0 0 1 352.59 909.68
  L 352.68 903.52
  A 0.34 0.34 0.0 0 1 353.02 903.18
  L 373.16 903.22
  A 0.34 0.34 0.0 0 0 373.50 902.88
  L 373.50 883.34
  A 0.34 0.34 0.0 0 1 373.84 883.00
  L 380.10 882.99
  A 0.34 0.34 0.0 0 1 380.44 883.33
  L 380.43 902.86
  A 0.34 0.34 0.0 0 0 380.77 903.20
  L 401.28 903.21
  A 0.34 0.34 0.0 0 1 401.62 903.55
  L 401.57 909.69
  A 0.34 0.34 0.0 0 1 401.23 910.03
  L 380.78 910.02
  A 0.34 0.34 0.0 0 0 380.44 910.36
  Z"
/>
<path fill="#ffffff" d="
  M 633.44 910.35
  L 633.42 931.60
  A 0.33 0.33 0.0 0 1 633.09 931.93
  L 626.84 931.93
  A 0.33 0.33 0.0 0 1 626.51 931.60
  L 626.49 910.35
  A 0.33 0.33 0.0 0 0 626.16 910.02
  L 605.92 910.03
  A 0.33 0.33 0.0 0 1 605.59 909.70
  L 605.68 903.51
  A 0.33 0.33 0.0 0 1 606.01 903.18
  L 626.17 903.22
  A 0.33 0.33 0.0 0 0 626.50 902.89
  L 626.50 883.33
  A 0.33 0.33 0.0 0 1 626.83 883.00
  L 633.11 882.99
  A 0.33 0.33 0.0 0 1 633.44 883.32
  L 633.43 902.87
  A 0.33 0.33 0.0 0 0 633.76 903.20
  L 654.30 903.21
  A 0.33 0.33 0.0 0 1 654.63 903.54
  L 654.57 909.70
  A 0.33 0.33 0.0 0 1 654.24 910.03
  L 633.77 910.02
  A 0.33 0.33 0.0 0 0 633.44 910.35
  Z"
/>
</svg>
