<?xml version="1.0" encoding="UTF-8" standalone="no"?>
<!DOCTYPE svg PUBLIC "-//W3C//DTD SVG 1.1//EN" "http://www.w3.org/Graphics/SVG/1.1/DTD/svg11.dtd">
<svg xmlns="http://www.w3.org/2000/svg" version="1.1" viewBox="0.00 0.00 1000.00 1000.00">
<path fill="#ffffff" d="
  M 388.56 197.35
  C 388.15 196.52 387.47 195.74 387.16 194.88
  Q 386.99 194.39 387.44 194.12
  Q 404.98 183.74 423.04 173.85
  C 424.72 172.93 426.75 171.92 428.74 172.19
  Q 440.61 173.82 450.85 175.85
  Q 462.17 178.09 470.52 179.28
  Q 486.31 181.55 501.49 184.27
  Q 503.58 184.64 505.70 185.25
  Q 509.05 186.20 505.60 186.65
  C 499.42 187.46 493.22 189.18 487.36 191.76
  C 482.25 194.01 476.83 195.10 471.52 196.87
  Q 457.79 201.46 452.06 202.66
  Q 446.24 203.88 438.14 203.42
  Q 429.34 202.93 426.21 202.86
  C 421.07 202.76 415.86 202.23 410.54 201.93
  Q 401.95 201.44 393.59 200.98
  C 390.90 200.83 389.66 199.57 388.56 197.35
  Z"
/>
<path fill="#ffffff" d="
  M 287.99 233.75
  Q 285.81 234.39 284.05 235.67
  Q 282.57 236.75 280.93 237.72
  Q 277.43 239.78 274.12 241.96
  A 0.22 0.22 0.0 0 1 273.78 241.76
  L 275.22 225.68
  A 2.13 2.13 0.0 0 1 276.48 223.92
  Q 281.85 221.56 286.70 218.52
  Q 288.10 217.65 289.55 217.40
  C 292.28 216.93 294.11 216.63 296.25 214.49
  Q 300.80 209.92 304.86 205.68
  A 11.38 11.32 -80.0 0 1 308.40 203.19
  Q 323.67 196.35 336.49 190.54
  Q 339.62 189.12 342.91 189.22
  Q 346.04 189.31 347.09 189.26
  Q 363.50 188.39 379.65 187.49
  Q 380.33 187.45 379.99 188.05
  L 376.41 194.24
  Q 376.03 194.89 375.30 195.04
  Q 372.61 195.59 369.68 195.58
  C 365.53 195.56 361.80 196.42 358.07 198.26
  Q 344.46 204.98 331.36 211.18
  C 328.26 212.64 326.44 219.10 325.36 222.20
  A 3.05 3.05 0.0 0 1 322.89 224.21
  Q 313.44 225.44 304.24 226.73
  C 300.75 227.22 298.01 229.53 294.48 230.30
  Q 292.07 230.82 290.26 232.47
  A 5.86 5.84 -74.3 0 1 287.99 233.75
  Z"
/>
<path fill="#ffffff" d="
  M 534.79 268.96
  Q 521.81 269.13 508.94 266.03
  A 1.38 1.36 24.8 0 0 507.54 266.53
  C 502.45 273.19 497.13 275.60 488.26 279.87
  Q 478.48 284.59 468.70 288.70
  Q 468.16 288.92 467.67 289.27
  A 1.05 1.04 -56.6 0 1 466.86 289.44
  C 459.91 287.92 453.27 285.78 446.41 284.33
  C 441.85 283.37 437.33 281.89 432.71 280.85
  Q 412.64 276.36 393.08 270.98
  C 391.94 270.67 391.55 269.79 390.88 268.93
  Q 387.22 264.23 384.95 259.01
  C 383.27 255.16 379.68 254.02 377.79 250.67
  Q 377.52 250.19 377.14 249.81
  Q 369.51 242.29 363.61 233.50
  Q 363.32 233.07 363.82 232.96
  Q 365.69 232.54 367.70 232.29
  Q 391.17 229.37 411.52 227.22
  Q 416.92 226.65 425.69 227.96
  Q 437.25 229.68 450.02 231.48
  A 8.30 8.25 42.2 0 0 453.09 231.34
  Q 460.95 229.48 468.20 228.00
  Q 473.78 226.87 479.30 224.66
  Q 502.86 215.24 526.20 205.34
  Q 528.48 204.37 529.99 204.12
  Q 531.55 203.85 533.01 203.33
  Q 533.64 203.10 534.06 203.62
  L 542.59 213.92
  A 0.76 0.76 0.0 0 1 542.66 214.79
  Q 540.96 217.64 540.13 220.75
  Q 539.66 222.49 541.45 222.76
  L 562.58 225.92
  A 1.19 1.18 -68.8 0 0 563.74 225.40
  L 576.53 205.93
  A 0.38 0.38 0.0 0 1 577.07 205.83
  L 634.96 248.24
  Q 635.38 248.55 635.45 249.06
  Q 635.54 249.71 636.03 249.96
  Q 636.62 250.27 636.17 250.77
  C 634.09 253.11 631.46 253.79 629.50 256.06
  Q 626.28 259.78 621.77 263.78
  C 610.82 273.50 599.53 282.93 588.80 292.88
  Q 582.99 298.27 576.90 300.87
  C 573.92 302.14 571.01 303.69 567.83 304.21
  Q 559.01 305.64 549.91 306.04
  Q 539.20 306.51 528.21 307.07
  C 523.62 307.30 519.16 304.55 515.43 302.25
  Q 514.86 301.89 515.22 301.33
  L 535.17 269.65
  Q 535.61 268.95 534.79 268.96
  Z"
/>
<path fill="#ffffff" d="
  M 223.42 308.45
  C 219.03 317.93 214.81 327.57 210.19 336.94
  Q 209.18 339.01 207.42 339.68
  C 204.90 340.65 199.67 341.26 200.49 336.74
  C 202.96 323.19 205.19 310.27 208.37 296.68
  Q 210.92 285.75 211.58 274.53
  A 2.53 2.50 -19.8 0 1 212.39 272.83
  Q 225.34 260.78 238.32 249.28
  Q 241.66 246.32 244.02 241.39
  C 244.83 239.69 246.16 238.58 248.03 238.25
  Q 249.52 237.99 250.23 239.33
  L 265.55 268.61
  Q 265.70 268.91 265.46 269.14
  Q 254.91 279.19 244.46 287.97
  C 242.21 289.86 240.61 289.29 238.03 289.29
  Q 237.26 289.30 236.70 289.82
  Q 233.32 292.95 229.86 294.93
  C 228.67 295.61 227.79 296.92 227.39 298.17
  Q 225.62 303.69 223.42 308.45
  Z"
/>
<path fill="#ffffff" d="
  M 298.69 363.88
  Q 298.69 364.10 298.91 364.10
  Q 299.38 364.09 298.94 364.25
  Q 298.54 364.41 298.19 364.63
  A 0.85 0.84 70.1 0 0 297.80 365.47
  C 298.62 371.20 296.11 375.05 293.10 379.44
  A 2.33 2.31 15.9 0 1 291.25 380.46
  Q 289.47 380.52 289.27 378.86
  Q 289.20 378.32 288.82 377.93
  C 286.12 375.25 282.82 374.19 282.68 369.68
  Q 282.64 368.53 283.10 367.44
  Q 290.10 350.91 295.02 334.24
  C 296.66 328.69 298.80 323.14 300.60 317.55
  Q 300.76 317.04 301.23 316.78
  L 302.99 315.80
  Q 303.50 315.52 303.62 314.96
  Q 304.84 309.38 304.40 303.18
  C 304.19 300.13 301.73 297.34 299.38 295.64
  Q 291.45 289.93 284.58 280.24
  Q 284.27 279.79 284.37 279.26
  Q 285.23 274.50 285.12 269.75
  C 285.06 267.16 288.36 266.25 290.36 266.14
  C 294.13 265.93 299.63 264.57 302.38 261.83
  Q 303.11 261.10 304.21 261.06
  Q 305.32 261.03 306.36 260.61
  Q 322.29 254.27 339.86 243.62
  C 341.91 242.38 345.68 243.38 347.58 244.42
  Q 352.51 247.11 358.01 250.01
  Q 359.77 250.94 360.91 252.22
  Q 361.23 252.59 361.69 252.77
  Q 365.96 254.45 369.37 257.86
  Q 374.98 263.48 377.64 268.53
  C 379.66 272.37 381.70 276.58 383.12 280.70
  Q 389.51 299.25 396.00 313.24
  Q 400.54 323.02 403.91 332.00
  Q 408.07 343.10 412.62 355.36
  Q 415.00 361.76 416.02 367.92
  Q 417.40 376.26 417.86 385.47
  C 418.05 389.09 418.91 394.03 418.64 398.43
  Q 418.60 399.10 417.98 399.34
  Q 404.84 404.49 390.38 408.03
  Q 389.33 408.29 388.32 408.47
  Q 378.78 410.15 368.76 413.18
  C 366.45 413.87 364.21 413.96 361.93 414.72
  C 360.25 415.27 358.20 415.01 356.49 414.64
  Q 353.29 413.94 349.72 413.44
  C 345.16 412.80 340.61 411.69 336.03 410.71
  Q 331.26 409.68 325.41 407.15
  C 324.59 406.79 323.74 406.87 322.90 406.43
  C 320.24 405.03 317.31 403.31 314.40 402.53
  Q 312.67 402.06 311.34 400.68
  A 1.34 1.30 -66.7 0 1 310.97 399.71
  C 311.04 398.16 310.83 396.50 311.18 395.00
  Q 312.90 387.58 314.80 379.73
  Q 314.95 379.13 315.57 379.09
  Q 333.69 377.94 351.00 377.83
  Q 354.60 377.80 357.26 380.53
  Q 358.08 381.38 358.06 382.54
  Q 357.96 387.84 357.94 393.02
  A 1.83 1.83 0.0 0 0 360.37 394.75
  L 396.98 382.07
  A 1.35 1.35 0.0 0 0 397.78 381.34
  C 399.32 377.93 401.14 372.84 400.10 369.00
  C 398.97 364.86 400.11 361.13 398.65 356.99
  Q 392.91 340.78 383.45 309.16
  Q 382.74 306.78 380.61 308.08
  Q 372.98 312.74 365.25 316.67
  C 364.20 317.20 363.14 317.95 362.31 318.79
  Q 358.47 322.72 354.42 326.46
  A 1.74 1.72 70.3 0 0 353.88 327.62
  C 353.28 339.74 354.09 352.38 351.99 364.70
  A 0.32 0.32 0.0 0 1 351.62 364.95
  C 346.24 363.78 340.65 361.70 336.01 358.71
  C 332.01 356.12 327.50 356.12 323.22 357.90
  Q 320.13 359.19 316.57 360.05
  Q 308.93 361.89 301.74 363.66
  Q 300.56 363.95 299.45 363.41
  Q 298.69 363.04 298.69 363.88
  Z
  M 354.49 282.79
  L 326.03 282.19
  Q 325.38 282.17 325.88 282.60
  L 342.75 296.83
  A 0.76 0.76 0.0 0 0 343.84 296.72
  L 354.58 282.98
  A 0.12 0.12 0.0 0 0 354.49 282.79
  Z"
/>
<path fill="#ffffff" d="
  M 725.19 372.27
  Q 725.76 373.00 725.90 373.94
  Q 727.37 383.74 729.34 392.39
  Q 731.88 403.56 733.29 414.20
  Q 733.82 418.23 733.82 422.02
  Q 733.81 425.97 734.19 430.01
  Q 734.50 433.34 734.04 436.26
  Q 733.38 440.37 733.91 445.04
  Q 734.35 449.02 734.01 453.68
  Q 733.98 454.14 733.51 454.19
  C 732.01 454.32 730.71 454.81 729.18 455.01
  Q 725.13 455.55 721.00 456.17
  C 715.37 457.00 709.96 459.82 704.63 461.71
  Q 704.14 461.89 703.93 461.41
  Q 699.02 450.28 692.53 439.83
  Q 692.23 439.35 691.67 439.32
  Q 686.59 439.01 679.10 439.30
  C 676.72 439.40 674.35 439.08 671.94 439.20
  Q 664.20 439.61 656.69 439.50
  A 2.41 2.40 16.5 0 0 654.62 440.62
  Q 649.23 449.10 642.61 456.88
  C 640.52 459.34 637.41 462.38 634.14 462.05
  A 1.28 1.27 -18.7 0 1 633.36 461.67
  L 615.70 443.02
  Q 614.27 441.51 615.12 439.62
  L 630.75 404.46
  Q 631.04 403.80 630.55 403.27
  Q 625.39 397.71 623.32 393.13
  Q 621.13 388.30 619.06 383.53
  C 618.73 382.77 618.86 381.72 618.52 380.82
  Q 616.02 374.19 613.26 371.00
  Q 610.08 367.32 603.98 362.49
  Q 601.90 360.85 599.20 357.04
  C 598.04 355.40 596.64 354.41 595.41 352.94
  Q 595.07 352.55 595.15 352.03
  Q 595.83 347.57 596.19 342.57
  C 596.44 339.08 599.44 334.37 601.90 331.45
  Q 610.54 321.22 620.47 311.84
  A 2.27 2.19 -71.8 0 1 621.51 311.29
  Q 623.31 310.89 624.64 309.54
  C 628.91 305.21 634.02 302.99 639.51 300.81
  C 640.94 300.25 642.41 300.34 643.19 301.85
  Q 648.02 311.23 653.41 318.69
  C 655.21 321.18 656.29 323.81 657.98 326.26
  C 660.44 329.85 662.20 333.98 664.53 337.70
  C 667.01 341.66 669.14 345.73 671.56 349.61
  A 1.87 1.83 -4.0 0 0 672.42 350.34
  Q 679.78 353.43 686.62 357.25
  Q 687.34 357.66 687.30 356.83
  Q 687.14 354.01 687.12 350.92
  Q 687.11 348.78 685.99 346.93
  Q 682.32 340.87 678.82 335.33
  C 675.36 329.85 674.33 322.67 674.33 315.92
  Q 674.33 314.18 675.38 312.65
  Q 677.11 310.12 678.50 307.54
  Q 678.75 307.07 678.25 306.90
  Q 678.11 306.85 678.07 306.71
  Q 678.01 306.52 678.03 306.33
  Q 678.18 305.04 677.35 304.39
  Q 672.99 300.95 669.06 297.34
  C 662.80 291.57 656.38 286.62 650.18 281.21
  A 9.17 9.07 9.9 0 1 647.74 277.78
  Q 646.03 273.52 645.09 269.43
  Q 644.22 265.61 645.64 260.33
  Q 645.79 259.79 646.16 260.21
  Q 653.49 268.64 664.97 276.35
  C 670.57 280.11 675.28 285.35 680.63 289.56
  Q 686.74 294.37 692.42 298.18
  C 695.38 300.18 697.35 302.89 700.02 305.13
  Q 704.80 309.13 706.16 311.11
  Q 717.02 326.89 727.53 340.55
  Q 727.84 340.95 727.89 341.45
  Q 728.06 343.14 727.88 345.12
  Q 727.30 351.38 726.33 357.02
  C 725.93 359.36 726.09 361.69 725.44 363.96
  C 724.72 366.46 725.06 368.99 724.95 371.56
  Q 724.94 371.96 725.19 372.27
  Z"
/>
<path fill="#ffffff" d="
  M 389.64 276.10
  C 413.37 287.47 437.25 298.52 460.98 309.90
  Q 462.55 310.66 464.21 311.26
  Q 466.30 312.01 468.09 313.56
  Q 468.46 313.88 468.94 313.94
  Q 470.49 314.13 472.03 314.91
  Q 472.53 315.16 471.98 315.24
  Q 469.15 315.64 466.08 315.83
  Q 463.22 316.00 460.60 314.70
  C 456.85 312.83 453.17 310.85 449.39 309.24
  C 439.20 304.90 428.99 299.85 418.78 295.24
  C 410.02 291.28 401.19 286.70 392.27 282.62
  A 1.81 1.80 1.3 0 1 391.33 281.64
  L 389.26 276.46
  A 0.28 0.28 0.0 0 1 389.64 276.10
  Z"
/>
<path fill="#ffffff" d="
  M 277.19 288.89
  Q 279.05 287.75 280.31 286.35
  Q 280.74 285.88 281.18 286.34
  L 296.04 302.23
  Q 296.93 303.17 295.87 303.93
  Q 289.86 308.22 284.28 312.37
  C 283.56 312.91 282.78 313.09 282.06 313.63
  Q 275.74 318.45 264.25 326.09
  Q 261.92 327.63 259.69 328.35
  Q 252.38 330.70 245.19 332.86
  Q 239.50 334.57 233.82 335.12
  Q 233.21 335.18 233.37 334.59
  Q 234.40 330.92 235.64 329.66
  Q 242.30 322.90 249.19 315.86
  Q 253.88 311.07 258.26 305.72
  C 263.17 299.72 270.03 293.28 277.19 288.89
  Z"
/>
<path fill="#ffffff" d="
  M 442.32 364.08
  Q 438.50 366.52 434.56 369.06
  Q 433.61 369.67 431.93 372.49
  Q 431.84 372.64 431.69 372.55
  L 431.46 372.41
  A 0.44 0.44 0.0 0 1 431.29 371.82
  Q 435.37 364.35 439.30 356.91
  Q 442.34 351.17 446.44 345.61
  Q 451.22 339.11 455.65 332.72
  Q 456.46 331.55 458.16 330.53
  Q 458.66 330.23 458.53 330.80
  Q 457.55 335.15 456.28 339.13
  C 454.27 345.42 454.61 352.16 454.81 358.54
  Q 454.83 359.07 454.33 359.23
  Q 445.40 362.11 442.32 364.08
  Z"
/>
<path fill="#ffffff" d="
  M 255.27 359.24
  C 254.47 362.43 256.95 365.75 259.51 367.57
  C 263.87 370.69 270.12 368.75 273.22 364.80
  Q 274.87 362.69 274.69 356.92
  Q 274.64 355.25 275.92 356.33
  L 277.97 358.08
  Q 279.09 359.02 278.87 360.47
  C 277.87 367.16 274.53 372.31 267.65 373.70
  Q 260.76 375.09 255.81 370.71
  C 253.94 369.05 252.77 366.84 252.86 364.28
  C 253.04 358.78 251.88 354.79 256.34 350.49
  A 2.14 2.08 74.2 0 0 256.93 349.40
  C 257.55 346.27 257.83 343.32 260.44 341.10
  Q 260.87 340.73 261.34 341.05
  L 265.36 343.72
  Q 265.92 344.10 265.93 344.78
  L 266.02 349.42
  Q 266.03 349.98 265.47 349.98
  Q 260.99 349.94 257.13 353.86
  C 255.61 355.40 255.77 357.27 255.27 359.24
  Z"
/>
<path fill="#ffffff" d="
  M 466.13 357.04
  C 465.06 353.99 463.86 350.20 462.07 347.74
  Q 461.66 347.18 462.30 346.93
  Q 464.39 346.12 465.37 346.09
  Q 484.56 345.57 506.63 345.64
  Q 507.52 345.64 507.28 346.50
  L 507.15 346.92
  Q 506.78 348.21 505.44 348.30
  C 502.57 348.50 499.68 348.29 496.80 348.79
  Q 486.58 350.57 477.12 352.40
  C 474.97 352.81 474.24 354.56 473.44 356.34
  C 472.34 358.78 469.12 358.79 466.96 357.91
  A 1.48 1.47 1.4 0 1 466.13 357.04
  Z"
/>
<path fill="#ffffff" d="
  M 224.71 429.38
  Q 228.37 426.47 231.38 423.76
  Q 236.88 418.80 242.47 414.21
  Q 244.97 412.16 247.38 410.01
  Q 249.69 407.95 252.29 405.78
  Q 255.31 403.26 258.49 400.20
  Q 258.91 399.80 259.46 400.00
  Q 262.71 401.26 262.98 403.87
  Q 263.18 405.94 261.46 407.94
  Q 251.73 419.23 242.31 430.11
  C 240.99 431.63 239.48 432.99 238.24 434.64
  Q 236.13 437.44 233.58 440.31
  Q 232.95 441.02 232.29 441.79
  Q 228.79 445.89 224.34 450.12
  Q 223.97 450.47 224.00 450.97
  Q 224.14 453.65 224.96 455.70
  Q 226.55 459.68 230.03 464.01
  Q 234.09 469.06 237.57 474.44
  Q 238.68 476.16 239.91 477.42
  C 242.25 479.82 244.04 481.67 244.51 485.20
  Q 245.50 492.59 245.27 499.55
  Q 245.25 500.21 244.68 499.86
  Q 235.38 494.16 230.43 488.16
  C 223.47 479.73 217.96 469.35 213.03 459.00
  C 210.97 454.67 210.44 450.02 209.73 445.28
  Q 209.14 441.26 209.11 437.26
  Q 209.02 422.95 209.14 408.94
  C 209.18 405.07 209.64 401.32 210.07 397.46
  Q 210.31 395.27 211.06 393.13
  Q 212.38 389.35 213.38 385.55
  Q 215.09 379.04 219.74 369.42
  C 222.41 363.89 223.20 357.43 225.00 351.60
  Q 225.18 351.02 225.78 351.02
  L 238.19 350.98
  Q 238.87 350.98 238.56 351.58
  C 237.97 352.71 237.86 353.88 237.23 355.02
  Q 234.00 360.91 230.93 368.17
  Q 229.17 372.32 226.63 376.29
  C 225.59 377.90 225.35 379.88 223.93 381.14
  Q 223.53 381.49 223.44 382.01
  Q 222.79 385.90 222.88 390.25
  Q 223.13 402.72 222.93 419.24
  Q 222.87 423.73 224.06 429.14
  Q 224.20 429.78 224.71 429.38
  Z"
/>
<path fill="#ffffff" d="
  M 550.82 398.76
  C 550.64 397.05 549.29 395.25 548.79 393.50
  Q 544.29 377.72 542.35 361.76
  A 0.33 0.32 14.9 0 1 542.87 361.46
  Q 549.91 366.82 554.33 371.31
  C 556.18 373.19 555.71 375.77 556.14 378.18
  Q 557.21 384.12 558.72 389.05
  Q 560.85 396.03 561.57 403.11
  Q 561.69 404.29 560.53 404.56
  L 556.38 405.51
  Q 555.89 405.63 555.41 405.48
  L 551.99 404.40
  Q 551.49 404.24 551.42 403.72
  Q 551.08 401.25 550.82 398.76
  Z"
/>
<rect fill="#ffffff" x="-13.83" y="-2.02" transform="translate(285.71,409.62) rotate(1.1)" width="27.66" height="4.04" rx="0.61"/>
<path fill="#ffffff" d="
  M 561.79 420.47
  Q 562.02 421.52 561.90 422.64
  Q 561.82 423.37 561.36 422.80
  Q 557.06 417.49 554.71 411.72
  Q 554.50 411.21 555.06 411.19
  L 560.40 410.98
  A 0.59 0.58 -12.9 0 1 560.97 411.33
  Q 562.62 414.99 561.78 419.60
  Q 561.70 420.03 561.79 420.47
  Z"
/>
<path fill="#ffffff" d="
  M 711.73 527.04
  A 0.36 0.36 0.0 0 0 712.33 527.06
  Q 718.74 517.68 724.74 508.23
  Q 729.36 500.95 735.08 495.99
  Q 735.50 495.63 735.85 496.05
  Q 740.49 501.70 743.97 509.31
  Q 744.82 511.16 746.21 512.45
  Q 751.27 517.13 756.43 525.61
  Q 758.30 528.66 759.17 532.50
  Q 760.32 537.59 761.51 542.21
  Q 762.79 547.15 764.18 551.66
  Q 767.79 563.36 770.89 574.00
  Q 773.04 581.38 771.82 588.66
  Q 770.50 596.58 767.83 605.15
  Q 765.84 611.54 762.48 615.95
  Q 761.14 617.72 760.06 619.60
  C 759.06 621.33 757.24 620.92 755.68 621.72
  Q 750.92 624.15 745.78 626.57
  C 743.60 627.59 742.76 630.11 742.19 632.26
  Q 742.04 632.80 741.50 632.93
  Q 736.22 634.18 732.45 633.33
  Q 729.53 632.68 726.07 630.89
  C 723.84 629.74 720.28 629.52 718.03 630.19
  Q 714.09 631.35 710.51 630.89
  Q 704.78 630.16 700.38 628.10
  Q 697.51 626.76 694.86 626.35
  Q 691.57 625.83 689.16 625.21
  Q 686.86 624.62 684.78 624.74
  C 682.52 624.87 681.06 623.83 678.86 623.74
  Q 675.13 623.59 670.95 622.91
  C 666.94 622.25 663.13 622.71 659.22 622.62
  C 654.51 622.51 649.87 611.68 647.60 607.92
  Q 646.40 605.92 645.30 603.63
  Q 643.50 599.87 640.45 596.17
  C 639.08 594.50 637.13 594.04 635.95 592.38
  Q 635.62 591.91 635.04 591.93
  C 630.05 592.05 624.07 586.30 620.84 582.70
  C 618.76 580.39 615.69 579.07 613.04 577.27
  Q 610.61 575.62 608.53 573.93
  C 606.09 571.95 603.54 570.55 601.09 568.71
  Q 584.70 556.43 576.55 551.33
  Q 568.49 546.27 559.14 540.85
  Q 557.29 539.77 555.35 538.01
  C 553.76 536.56 551.69 535.80 549.93 534.59
  Q 545.26 531.39 540.84 528.48
  Q 536.50 525.63 531.71 522.40
  Q 525.78 518.40 518.98 514.60
  C 515.90 512.88 512.45 512.05 509.28 510.43
  Q 506.95 509.23 504.42 508.62
  Q 501.30 507.87 498.63 506.69
  Q 492.35 503.90 485.50 501.84
  Q 481.05 500.50 475.70 497.85
  Q 445.77 482.99 424.99 472.21
  Q 410.31 464.59 399.90 459.40
  Q 392.63 455.78 385.81 452.20
  Q 378.74 448.50 371.73 444.94
  Q 369.61 443.87 371.84 443.05
  C 373.88 442.30 375.47 440.94 377.28 439.87
  Q 394.41 429.70 411.47 419.41
  Q 413.54 418.16 415.54 417.40
  Q 416.01 417.22 416.48 417.40
  Q 430.99 423.15 445.47 428.97
  Q 453.90 432.36 464.10 436.26
  Q 485.80 444.56 507.31 453.34
  C 513.37 455.81 520.81 458.47 527.44 461.28
  C 534.33 464.19 541.68 466.56 548.78 469.70
  Q 550.54 470.48 551.73 472.36
  Q 553.49 475.13 554.66 477.80
  Q 556.62 482.26 557.98 484.61
  C 559.66 487.52 560.85 490.63 562.62 493.39
  Q 565.56 497.98 567.68 502.98
  Q 568.99 506.08 571.17 508.50
  C 575.94 513.79 580.88 518.11 585.73 522.69
  Q 602.34 538.37 617.82 551.67
  Q 624.08 557.04 633.29 562.26
  Q 635.13 563.30 640.32 568.48
  Q 640.69 568.85 641.20 568.93
  Q 642.26 569.08 643.39 569.01
  Q 652.82 568.38 660.21 568.85
  C 664.23 569.11 668.65 572.61 671.70 575.22
  C 676.22 579.11 682.96 577.26 682.66 570.62
  Q 682.57 568.53 680.62 566.62
  Q 675.96 562.07 672.72 556.71
  Q 668.99 550.57 664.91 544.20
  C 662.55 540.51 660.51 536.71 658.30 532.95
  C 656.96 530.65 658.13 526.98 661.27 527.07
  Q 668.86 527.31 674.86 526.10
  Q 675.37 526.00 675.62 525.54
  Q 676.89 523.24 675.47 521.04
  Q 672.35 516.20 669.34 510.79
  Q 669.14 510.45 669.13 510.05
  L 669.02 504.81
  A 0.89 0.88 -75.6 0 0 668.58 504.06
  Q 667.59 503.48 667.05 502.57
  Q 662.40 494.67 657.73 489.39
  C 654.65 485.91 652.88 480.47 651.61 475.90
  Q 651.45 475.35 651.97 475.10
  Q 655.84 473.21 659.36 470.39
  A 0.75 0.74 -40.4 0 1 660.38 470.47
  Q 666.12 476.75 671.83 483.87
  C 673.92 486.46 675.19 490.34 678.17 492.10
  Q 681.85 494.27 685.12 496.74
  Q 687.17 498.28 689.60 498.64
  C 693.50 499.21 695.98 501.77 698.21 504.72
  Q 700.49 507.72 699.65 511.58
  Q 699.53 512.15 699.68 512.71
  Q 700.76 516.79 702.65 518.87
  Q 705.72 522.24 711.08 526.19
  Q 711.33 526.38 711.49 526.64
  Q 711.61 526.84 711.73 527.04
  Z
  M 733.59 600.78
  Q 733.82 593.98 733.64 586.10
  C 733.60 584.34 734.74 583.20 735.72 581.92
  A 1.03 1.02 -71.7 0 1 736.51 581.52
  L 740.95 581.37
  A 0.66 0.66 0.0 0 0 741.45 580.32
  Q 739.42 577.61 739.92 574.37
  Q 741.43 564.67 747.55 558.96
  C 750.33 556.35 751.62 552.35 753.13 549.00
  A 1.40 1.40 0.0 0 0 753.15 547.91
  L 750.68 541.56
  Q 750.48 541.06 750.11 541.45
  C 747.84 543.93 745.39 546.25 743.53 549.05
  Q 737.11 558.69 730.42 567.75
  C 728.15 570.84 725.34 574.12 722.28 576.69
  Q 720.49 578.19 719.04 580.31
  Q 717.06 583.22 712.18 591.52
  Q 711.86 592.06 712.23 592.57
  L 730.17 617.05
  Q 730.44 617.41 730.59 616.99
  Q 733.29 609.71 733.59 600.78
  Z"
/>
<path fill="#ffffff" d="
  M 338.85 425.68
  Q 340.52 426.16 342.35 426.27
  A 1.88 1.87 86.2 0 1 344.07 427.78
  Q 344.64 430.75 344.80 433.87
  Q 344.95 436.93 345.43 440.05
  Q 345.81 442.56 345.90 445.50
  Q 345.98 448.21 346.43 450.95
  Q 347.02 454.55 346.93 458.70
  Q 346.88 461.06 345.88 463.07
  Q 341.39 472.02 337.78 479.45
  Q 336.99 481.09 335.54 482.44
  Q 335.00 482.95 335.07 482.21
  Q 335.23 480.57 334.68 479.10
  Q 333.36 475.62 334.76 471.79
  Q 335.58 469.53 334.72 467.24
  Q 334.23 465.95 334.21 464.50
  Q 334.12 457.68 332.67 449.97
  C 332.11 446.99 332.12 444.06 331.58 441.02
  Q 330.35 434.09 329.91 425.65
  Q 329.88 425.15 330.39 425.11
  Q 335.36 424.70 338.85 425.68
  Z"
/>
<path fill="#ffffff" d="
  M 294.10 428.68
  Q 285.29 427.66 279.42 434.22
  C 275.91 438.15 274.58 444.34 276.24 449.32
  Q 276.70 450.72 275.25 450.48
  L 274.71 450.39
  A 1.93 1.92 -89.0 0 1 273.11 448.73
  Q 271.70 437.63 278.50 431.35
  C 281.46 428.61 286.83 426.09 291.04 425.83
  C 298.09 425.39 304.27 429.00 307.96 435.13
  C 312.09 441.97 310.93 450.79 305.80 456.57
  Q 298.29 465.04 286.92 462.79
  Q 286.09 462.63 286.20 461.78
  L 286.32 460.92
  Q 286.45 459.98 287.39 460.14
  Q 300.00 462.22 305.84 451.78
  C 310.96 442.62 305.15 429.96 294.10 428.68
  Z"
/>
<path fill="#ffffff" d="
  M 212.52 514.76
  Q 207.14 504.01 201.23 493.21
  Q 199.99 490.95 199.76 488.57
  Q 198.30 473.27 196.50 457.92
  Q 196.25 455.73 198.44 455.49
  Q 199.63 455.36 200.82 455.23
  Q 203.06 454.99 203.62 457.18
  L 219.86 520.84
  Q 220.05 521.60 219.39 521.18
  Q 216.98 519.68 214.83 518.45
  C 213.38 517.62 213.21 516.14 212.52 514.76
  Z"
/>
<path fill="#ffffff" d="
  M 510.99 541.48
  Q 508.57 542.21 506.30 541.09
  L 387.03 482.03
  Q 385.13 481.09 386.64 479.60
  Q 387.26 478.99 388.03 478.76
  Q 390.63 478.00 393.03 479.19
  Q 453.96 509.46 513.06 538.90
  Q 515.09 539.91 512.99 540.77
  Q 511.99 541.18 510.99 541.48
  Z"
/>
<path fill="#ffffff" d="
  M 190.20 491.28
  Q 193.13 504.91 197.04 521.68
  A 1.00 1.00 0.0 0 1 196.01 522.90
  Q 193.12 522.72 191.07 521.15
  Q 186.41 517.60 182.47 514.46
  A 1.13 1.12 23.0 0 1 182.06 513.46
  Q 183.37 502.53 184.96 490.40
  Q 185.29 487.87 187.76 488.59
  Q 189.75 489.17 190.20 491.28
  Z"
/>
<path fill="#ffffff" d="
  M 291.08 545.68
  C 296.49 548.16 304.66 548.03 310.11 544.18
  Q 311.17 543.43 311.42 544.70
  L 311.72 546.18
  Q 311.97 547.43 310.82 547.99
  C 300.89 552.80 289.27 551.62 282.01 543.05
  C 279.08 539.59 276.22 535.97 275.39 531.39
  Q 273.27 519.79 280.12 511.62
  C 290.39 499.38 307.27 500.04 317.86 511.92
  Q 318.70 512.86 317.48 513.15
  L 316.21 513.46
  A 2.36 2.35 61.6 0 1 313.94 512.78
  C 306.58 504.97 295.53 504.33 286.81 510.12
  C 281.51 513.63 277.98 520.55 278.40 526.97
  Q 279.27 540.27 291.08 545.68
  Z"
/>
<path fill="#ffffff" d="
  M 301.90 527.45
  L 293.93 517.97
  A 0.35 0.35 0.0 0 1 293.85 517.72
  L 293.99 515.62
  A 0.35 0.35 0.0 0 1 294.34 515.29
  L 301.73 515.41
  A 0.35 0.35 0.0 0 1 302.07 515.74
  L 302.52 527.21
  A 0.35 0.35 0.0 0 1 301.90 527.45
  Z"
/>
<path fill="#ffffff" d="
  M 421.76 544.54
  Q 416.81 543.48 415.59 542.20
  Q 405.36 531.54 398.92 519.72
  Q 398.49 518.92 398.37 518.04
  A 0.26 0.26 0.0 0 1 398.73 517.77
  L 433.08 532.12
  Q 433.80 532.42 433.33 533.04
  Q 429.99 537.39 430.68 542.03
  C 430.92 543.67 429.75 544.57 430.13 546.26
  Q 430.64 548.58 430.16 550.80
  Q 429.85 552.20 430.42 553.81
  Q 431.40 556.54 432.97 559.16
  C 433.90 560.71 436.16 561.48 437.52 562.70
  A 1.44 1.43 64.5 0 0 438.52 563.06
  L 445.24 562.85
  Q 446.86 562.80 446.76 564.42
  Q 446.53 568.51 446.27 572.55
  Q 445.71 581.57 444.70 588.13
  Q 443.77 594.16 438.63 597.72
  Q 438.14 598.06 437.89 597.52
  Q 433.94 589.20 431.08 581.22
  C 430.66 580.06 429.98 579.02 429.48 577.89
  Q 429.28 577.42 429.39 576.93
  L 430.36 572.54
  Q 430.48 571.99 430.84 571.55
  Q 431.87 570.29 430.98 568.94
  A 1.53 1.50 -60.6 0 1 430.73 568.01
  C 430.84 565.99 430.74 563.94 429.35 562.30
  C 426.23 558.63 425.04 555.51 424.42 551.07
  C 424.11 548.83 422.69 547.34 422.36 545.18
  Q 422.28 544.65 421.76 544.54
  Z"
/>
<path fill="#ffffff" d="
  M 301.86 533.06
  Q 303.03 534.45 303.23 536.54
  Q 303.40 538.38 301.66 538.69
  C 298.96 539.15 292.84 540.53 292.95 535.72
  Q 293.11 529.19 292.81 523.15
  Q 292.77 522.31 293.31 522.95
  Q 298.17 528.67 301.86 533.06
  Z"
/>
<path fill="#ffffff" d="
  M 218.63 546.74
  C 216.48 545.61 210.90 543.46 210.09 541.13
  Q 208.64 536.90 207.69 530.33
  Q 207.59 529.65 208.28 529.59
  C 209.62 529.46 211.12 529.84 211.64 531.29
  Q 213.31 535.96 214.99 539.76
  A 4.82 4.79 2.0 0 0 217.17 542.08
  L 225.02 546.16
  A 0.49 0.48 -43.2 0 1 224.99 547.03
  Q 221.89 548.44 218.63 546.74
  Z"
/>
<path fill="#ffffff" d="
  M 394.58 573.27
  C 390.22 574.39 384.98 577.46 383.64 582.08
  Q 382.71 585.31 382.29 588.48
  Q 381.15 597.06 379.94 605.35
  C 379.68 607.10 378.44 607.94 376.88 608.48
  A 2.02 2.00 55.5 0 1 374.89 608.10
  C 372.21 605.75 369.21 603.78 365.45 603.74
  Q 362.40 603.71 359.79 604.33
  C 357.84 604.80 356.01 605.77 354.19 604.15
  Q 352.41 602.56 351.30 600.97
  Q 351.00 600.54 351.02 600.02
  C 351.06 598.00 351.12 596.09 350.68 594.08
  C 349.96 590.78 350.35 587.53 349.47 584.37
  C 348.88 582.29 349.15 580.10 348.67 577.92
  C 347.97 574.76 348.37 571.59 347.55 568.53
  Q 347.01 566.57 347.05 564.40
  C 347.09 561.84 346.10 559.59 346.08 556.94
  Q 346.07 556.43 346.35 556.00
  Q 349.66 550.98 354.34 545.96
  Q 356.75 543.38 359.89 541.85
  C 365.04 539.35 369.44 537.62 375.26 537.98
  C 377.07 538.10 378.90 537.11 380.46 537.43
  C 387.71 538.90 395.04 540.26 400.55 545.70
  Q 405.21 550.31 409.51 554.67
  A 1.91 1.87 19.1 0 1 410.03 555.71
  C 410.50 558.66 410.84 561.73 408.69 564.29
  Q 405.99 567.51 403.40 570.50
  A 3.86 3.84 -74.9 0 1 401.20 571.77
  Q 398.06 572.37 394.58 573.27
  Z"
/>
<path fill="#ffffff" d="
  M 253.12 544.80
  Q 253.40 544.98 253.14 545.20
  Q 250.95 547.03 247.76 546.34
  Q 240.53 544.78 231.89 542.64
  Q 230.73 542.35 231.79 541.79
  Q 233.90 540.66 235.97 539.48
  C 241.55 536.33 248.73 541.83 253.12 544.80
  Z"
/>
<path fill="#ffffff" d="
  M 241.70 560.12
  Q 241.97 559.78 242.38 559.63
  Q 242.74 559.51 243.13 559.55
  C 248.38 560.04 254.65 560.68 259.26 563.55
  A 0.56 0.55 46.0 0 1 259.25 564.51
  C 256.70 565.98 254.13 565.70 251.43 566.59
  C 248.01 567.72 244.40 567.84 243.01 571.80
  Q 241.79 575.28 241.08 578.23
  Q 240.19 581.90 240.82 585.56
  C 241.64 590.33 244.37 595.89 247.30 599.82
  C 251.92 606.02 257.53 611.90 264.23 615.81
  C 271.91 620.28 281.83 624.14 290.46 619.85
  A 1.32 1.32 0.0 0 1 292.35 620.85
  C 292.72 623.41 287.63 628.64 286.31 629.70
  Q 283.29 632.11 277.78 634.18
  Q 274.90 635.26 271.73 634.74
  Q 266.52 633.88 262.63 632.24
  Q 251.28 627.46 240.81 616.72
  Q 229.57 605.20 224.56 590.77
  Q 222.85 585.86 223.05 579.60
  C 223.14 576.76 223.85 574.70 224.16 572.08
  Q 224.33 570.66 225.23 569.60
  Q 231.72 562.04 241.00 560.54
  A 1.12 1.10 -75.4 0 0 241.70 560.12
  Z"
/>
<path fill="#ffffff" d="
  M 579.46 591.05
  Q 578.49 586.59 577.34 584.88
  Q 571.34 575.90 561.06 571.20
  C 556.91 569.30 552.90 566.85 548.18 566.09
  Q 541.47 565.02 533.37 564.60
  Q 529.57 564.41 525.68 565.48
  Q 518.18 567.54 511.34 569.23
  Q 509.82 569.60 510.92 568.49
  C 512.12 567.27 513.85 566.13 515.55 565.55
  Q 521.49 563.52 527.35 561.52
  C 535.81 558.62 544.80 560.33 553.43 561.05
  Q 555.79 561.25 558.02 561.88
  C 560.10 562.47 562.20 562.91 564.10 563.91
  Q 573.15 568.71 580.76 575.73
  C 584.63 579.32 586.86 583.84 589.94 588.08
  Q 591.44 590.14 592.00 592.79
  Q 593.41 599.37 594.32 604.33
  Q 594.65 606.12 594.48 608.06
  Q 593.63 618.05 592.09 624.42
  Q 590.87 629.45 587.34 637.18
  Q 585.87 640.39 583.38 643.05
  Q 577.36 649.48 572.11 654.70
  C 567.13 659.66 557.89 661.90 550.85 663.89
  Q 547.00 664.98 543.82 664.78
  Q 537.39 664.39 530.40 663.61
  C 524.97 663.00 520.22 660.38 515.19 658.61
  Q 513.21 657.91 511.85 656.23
  Q 508.35 651.88 504.98 647.78
  Q 503.58 646.08 505.45 647.24
  Q 510.26 650.20 514.92 653.07
  C 517.12 654.43 519.45 655.31 521.88 656.36
  C 524.13 657.32 526.45 657.35 528.80 657.88
  C 532.06 658.63 535.46 658.22 538.78 658.18
  Q 541.81 658.15 544.76 657.58
  C 550.65 656.46 556.39 655.03 561.07 651.07
  Q 564.50 648.17 567.97 645.50
  C 571.49 642.80 574.05 639.07 576.96 635.71
  Q 579.16 633.18 580.61 629.98
  Q 582.07 626.77 583.48 623.57
  C 585.16 619.77 584.08 616.17 584.41 612.25
  Q 584.62 609.72 584.96 607.21
  Q 585.26 605.02 584.25 602.94
  Q 583.10 600.55 582.45 598.19
  Q 582.26 597.49 581.69 597.95
  L 571.76 606.05
  Q 571.40 606.34 570.98 606.18
  L 567.54 604.84
  A 0.76 0.76 0.0 0 1 567.06 604.05
  L 567.39 601.00
  A 1.32 1.31 73.8 0 1 567.87 600.12
  L 578.00 591.73
  A 1.80 1.43 -62.1 0 1 578.92 591.33
  Q 579.06 591.32 579.20 591.34
  Q 579.53 591.38 579.46 591.05
  Z"
/>
<path fill="#ffffff" d="
  M 292.47 593.70
  A 1.03 1.01 -8.4 0 0 293.45 594.41
  L 301.69 594.41
  A 0.57 0.56 -72.6 0 1 302.15 595.30
  C 300.95 597.07 299.88 599.35 297.48 599.68
  C 293.05 600.29 287.80 599.38 286.33 594.59
  Q 283.18 584.32 279.91 575.57
  Q 279.22 573.74 281.17 573.71
  L 284.08 573.66
  A 2.75 2.75 0.0 0 1 286.74 575.57
  L 292.47 593.70
  Z"
/>
<path fill="#ffffff" d="
  M 338.55 616.13
  Q 325.09 610.79 313.35 606.46
  Q 312.39 606.10 313.30 605.64
  C 315.75 604.41 317.33 603.33 320.33 604.13
  Q 340.97 609.63 361.24 615.04
  Q 363.06 615.53 361.68 616.80
  Q 361.03 617.39 360.07 617.54
  Q 350.00 619.13 345.36 618.25
  Q 342.56 617.72 338.55 616.13
  Z"
/>
<path fill="#ffffff" d="
  M 287.04 634.11
  C 289.33 633.00 292.06 632.47 293.92 630.63
  C 296.91 627.67 301.04 623.30 301.85 618.93
  Q 302.61 614.87 301.74 611.24
  Q 301.62 610.74 302.07 610.98
  Q 303.97 612.01 304.82 613.57
  Q 308.00 619.44 307.13 626.38
  Q 306.64 630.22 303.18 634.33
  Q 301.54 636.27 298.84 636.82
  Q 292.64 638.08 287.23 636.47
  Q 284.08 635.54 287.04 634.11
  Z"
/>
<path fill="#ffffff" d="
  M 338.77 653.90
  C 346.65 648.51 354.75 643.79 362.91 638.50
  Q 368.85 634.66 375.17 631.39
  Q 377.42 630.23 383.29 625.91
  C 386.01 623.91 389.16 622.47 391.99 620.52
  Q 396.25 617.60 400.66 614.67
  C 402.50 613.45 404.62 612.70 406.75 612.24
  Q 407.58 612.05 408.07 612.75
  Q 411.55 617.61 413.95 622.89
  A 0.81 0.81 0.0 0 1 413.69 623.88
  Q 410.32 626.37 407.62 629.55
  Q 404.88 632.76 402.08 635.59
  Q 392.93 644.83 383.22 654.65
  Q 381.91 655.99 379.88 656.57
  Q 376.23 657.62 374.57 657.84
  Q 365.88 659.03 356.57 659.05
  A 1.54 1.49 25.8 0 0 355.66 659.35
  Q 348.53 664.68 340.37 668.37
  Q 338.80 669.08 338.04 669.83
  Q 336.79 671.09 335.36 671.72
  Q 332.15 673.15 328.94 675.50
  Q 327.11 676.84 324.99 676.93
  Q 323.20 677.00 321.58 677.32
  Q 316.61 678.31 311.67 678.83
  Q 309.96 679.01 308.37 679.29
  Q 306.73 679.59 305.07 679.73
  Q 302.72 679.93 300.43 680.75
  C 299.40 681.11 298.46 680.87 297.45 681.02
  Q 296.49 681.16 297.33 680.66
  Q 299.20 679.55 300.60 677.71
  A 1.37 1.34 9.3 0 1 301.24 677.26
  Q 305.43 675.97 307.98 673.42
  Q 309.56 671.82 311.57 670.69
  C 316.88 667.69 322.02 664.40 327.38 661.55
  Q 330.90 659.67 334.07 656.87
  Q 335.33 655.75 336.50 655.20
  Q 337.70 654.63 338.77 653.90
  Z"
/>
<path fill="#ffffff" d="
  M 487.77 626.40
  C 489.13 632.65 492.02 638.35 493.44 644.56
  C 494.17 647.79 493.57 651.04 493.98 654.41
  Q 494.63 659.69 495.00 664.73
  Q 495.34 669.41 498.28 674.28
  C 499.59 676.46 499.49 678.28 498.36 680.48
  C 496.97 683.19 494.31 687.04 491.28 687.74
  Q 483.18 689.60 475.46 691.46
  C 473.45 691.94 471.94 690.84 470.66 689.50
  Q 470.27 689.09 470.38 688.53
  L 472.52 678.28
  A 1.57 1.54 -50.6 0 0 472.44 677.37
  Q 470.58 672.82 470.34 671.39
  Q 468.16 658.25 465.96 645.27
  A 2.19 2.18 -24.8 0 1 466.71 643.25
  L 487.19 626.20
  Q 487.65 625.82 487.77 626.40
  Z"
/>
<path fill="#ffffff" d="
  M 600.92 655.97
  C 604.23 649.26 607.20 642.20 609.86 635.34
  Q 610.13 634.63 610.38 635.35
  Q 612.02 640.31 612.74 646.28
  Q 613.02 648.68 612.03 651.07
  Q 608.12 660.46 604.09 666.60
  C 603.04 668.20 602.93 669.21 602.41 670.91
  C 601.86 672.76 604.38 676.62 605.46 678.28
  Q 607.83 681.93 608.91 686.58
  Q 610.57 693.67 612.40 701.35
  Q 612.51 701.82 612.05 701.97
  L 610.70 702.43
  Q 610.04 702.66 609.67 702.07
  Q 605.74 695.86 601.71 688.92
  Q 596.26 679.55 596.02 669.10
  Q 595.96 666.45 597.01 664.16
  Q 598.94 659.98 600.92 655.97
  Z"
/>
<path fill="#ffffff" d="
  M 699.79 682.85
  Q 700.53 683.45 700.93 684.29
  Q 701.21 684.87 701.77 684.57
  L 702.40 684.23
  Q 702.80 684.02 703.23 684.13
  Q 704.37 684.44 704.55 686.37
  Q 705.15 693.01 702.64 697.52
  C 701.63 699.31 699.46 699.92 698.93 701.89
  Q 698.28 704.31 696.41 706.29
  Q 696.02 706.69 695.89 707.24
  Q 694.49 712.76 691.55 715.13
  Q 686.21 719.43 677.69 718.37
  C 675.05 718.04 673.38 715.14 674.77 712.78
  C 675.38 711.74 675.24 710.61 675.05 709.49
  Q 674.96 708.98 675.17 708.50
  C 676.12 706.36 676.89 704.35 678.47 702.54
  Q 682.07 698.38 685.17 693.70
  Q 685.78 692.77 686.62 691.82
  Q 686.99 691.39 687.55 691.54
  C 688.52 691.80 689.44 691.35 689.90 690.49
  C 691.85 686.90 694.05 685.40 696.89 682.69
  Q 697.31 682.29 696.77 682.10
  C 694.39 681.25 690.18 679.88 688.00 681.50
  Q 687.52 681.85 686.92 681.88
  Q 685.24 681.96 683.79 681.17
  Q 683.35 680.94 683.15 680.48
  Q 680.69 675.02 680.34 673.18
  Q 678.95 665.82 678.91 658.43
  C 678.87 652.93 680.09 647.80 681.86 643.01
  Q 682.76 640.59 686.06 640.57
  Q 686.58 640.57 686.83 641.03
  Q 688.27 643.69 687.55 646.72
  Q 687.43 647.23 687.58 647.72
  Q 688.47 650.59 689.79 654.10
  Q 690.72 656.58 691.93 660.92
  Q 693.23 665.55 696.20 670.53
  Q 696.42 670.90 696.79 671.09
  Q 700.76 673.18 702.37 676.33
  Q 703.48 678.49 701.81 681.61
  Q 701.65 681.91 701.31 681.95
  L 700.03 682.07
  Q 698.97 682.17 699.79 682.85
  Z"
/>
<path fill="#ffffff" d="
  M 724.13 659.32
  Q 727.25 664.29 729.59 669.99
  C 730.16 671.40 730.09 673.12 730.30 674.65
  Q 730.69 677.53 728.82 680.03
  Q 727.02 682.45 720.92 686.79
  A 1.44 1.43 32.7 0 1 719.84 687.02
  Q 716.35 686.35 713.44 687.63
  Q 712.88 687.88 712.28 687.72
  Q 707.58 686.48 708.14 681.48
  C 708.30 680.01 709.04 678.74 708.99 677.26
  C 708.82 672.77 711.64 669.64 712.78 665.38
  C 713.45 662.90 714.88 660.25 714.06 657.67
  Q 712.84 653.80 711.36 649.52
  Q 711.14 648.89 711.49 648.33
  Q 712.88 646.02 715.31 645.94
  A 2.31 2.30 71.8 0 1 717.31 646.96
  C 720.03 650.95 721.60 655.28 724.13 659.32
  Z"
/>
<path fill="#ffffff" d="
  M 750.35 655.64
  C 749.82 652.53 749.19 647.33 752.63 645.89
  Q 753.25 645.63 753.54 646.23
  Q 756.95 653.38 756.94 658.12
  Q 756.92 665.74 756.44 672.93
  C 756.29 675.16 756.23 677.41 754.98 679.41
  Q 750.78 686.13 743.02 683.05
  Q 742.54 682.86 742.32 682.39
  L 740.17 677.94
  Q 739.95 677.47 740.05 676.95
  Q 740.59 674.21 742.06 671.53
  Q 746.16 664.05 750.13 656.89
  Q 750.46 656.31 750.35 655.64
  Z"
/>
<path fill="#ffffff" d="
  M 633.39 661.31
  Q 632.37 658.85 632.07 656.04
  C 631.77 653.35 634.45 649.74 635.77 647.31
  A 2.49 2.49 0.0 0 1 639.98 647.04
  Q 642.62 650.71 645.30 654.66
  C 646.59 656.57 648.19 660.79 646.96 663.18
  C 646.46 664.15 646.13 665.04 646.02 666.14
  Q 645.51 671.26 644.91 676.33
  Q 644.85 676.83 644.53 677.22
  Q 643.65 678.30 643.24 679.65
  C 642.68 681.54 641.38 682.44 639.97 683.69
  Q 639.56 684.05 639.02 683.97
  C 635.33 683.42 632.00 682.04 631.18 678.26
  C 630.55 675.37 630.03 672.79 630.67 669.83
  Q 631.16 667.57 631.02 665.18
  Q 630.99 664.64 631.29 664.19
  Q 632.05 663.04 633.15 662.19
  Q 633.61 661.84 633.39 661.31
  Z"
/>
<path fill="#ffffff" d="
  M 661.41 686.12
  Q 663.89 685.45 661.54 684.40
  C 656.31 682.04 654.32 678.48 654.17 673.20
  Q 654.13 671.77 653.77 670.28
  C 652.93 666.81 653.79 663.39 654.24 659.93
  Q 654.80 655.70 657.41 651.22
  Q 658.96 648.56 662.70 648.57
  Q 663.34 648.57 663.18 649.19
  Q 663.15 649.32 663.19 649.44
  Q 663.34 649.87 663.70 650.07
  Q 667.33 652.12 669.26 654.92
  Q 670.48 656.69 671.30 660.64
  Q 671.93 663.68 672.02 666.59
  Q 672.19 672.23 672.32 677.93
  Q 672.35 679.18 672.14 680.95
  C 671.89 682.95 672.75 684.66 671.16 686.36
  Q 670.75 686.79 670.67 687.38
  C 670.40 689.23 670.66 690.82 670.23 692.70
  C 669.11 697.71 666.77 701.17 663.93 705.14
  Q 663.09 706.31 663.15 707.69
  C 663.29 711.34 661.35 717.48 657.23 718.68
  C 654.45 719.49 652.02 716.85 651.17 714.34
  C 650.69 712.92 649.66 711.91 649.26 710.46
  Q 647.95 705.67 648.66 701.23
  Q 649.04 698.92 648.78 696.57
  C 648.22 691.36 652.15 685.99 657.60 686.46
  Q 659.55 686.62 661.41 686.12
  Z"
/>
<path fill="#ffffff" d="
  M 470.85 731.89
  C 469.70 743.10 464.54 753.53 455.74 760.82
  Q 448.80 766.57 441.38 770.86
  Q 439.65 771.85 437.72 772.45
  Q 416.92 778.86 398.80 768.29
  Q 392.17 764.42 385.15 756.29
  Q 379.81 750.11 377.41 741.21
  C 373.69 727.44 375.27 713.93 382.76 701.91
  Q 391.19 688.39 406.27 681.94
  Q 409.64 680.50 413.08 680.01
  Q 416.76 679.49 420.25 678.88
  C 422.37 678.50 424.54 678.70 426.70 678.65
  A 0.72 0.72 0.0 0 1 427.44 679.41
  L 427.19 685.25
  Q 427.16 685.91 426.50 685.88
  Q 410.66 684.97 398.65 694.38
  C 385.61 704.60 379.55 721.31 383.76 737.48
  C 391.43 766.97 426.87 777.54 449.88 757.71
  C 464.66 744.97 468.12 725.01 459.77 707.27
  C 459.43 706.55 458.90 705.84 458.22 705.41
  Q 457.62 705.05 458.14 704.58
  Q 459.22 703.60 460.66 703.20
  Q 465.83 701.79 470.43 701.25
  Q 471.06 701.18 471.33 701.75
  C 474.82 709.13 478.31 716.45 483.43 722.58
  Q 483.77 722.98 483.77 723.52
  Q 483.74 725.49 482.48 726.72
  Q 477.35 731.68 471.60 731.26
  Q 470.92 731.21 470.85 731.89
  Z"
/>
<path fill="#ffffff" d="
  M 435.96 679.93
  L 444.77 683.31
  A 0.71 0.71 0.0 0 1 445.15 684.31
  L 442.52 689.30
  A 0.71 0.71 0.0 0 1 441.65 689.64
  L 433.93 686.82
  A 0.71 0.71 0.0 0 1 433.49 685.97
  L 435.02 680.41
  A 0.71 0.71 0.0 0 1 435.96 679.93
  Z"
/>
<path fill="#ffffff" d="
  M 619.39 783.95
  Q 618.41 782.71 616.95 782.22
  Q 616.45 782.06 616.64 781.57
  Q 616.78 781.19 616.55 780.81
  Q 616.27 780.35 615.78 780.13
  L 603.22 774.46
  Q 602.68 774.22 602.22 774.60
  L 601.17 775.48
  A 1.03 0.99 -56.2 0 1 600.24 775.68
  Q 598.95 775.30 597.57 774.94
  Q 596.26 774.59 594.94 773.89
  C 591.20 771.90 587.39 769.89 583.52 768.20
  C 580.44 766.85 577.75 764.88 574.79 763.31
  Q 568.50 759.98 562.10 756.60
  Q 559.67 755.31 557.46 754.94
  Q 553.11 754.23 548.09 753.55
  Q 545.67 753.22 543.05 753.77
  Q 540.15 754.39 536.52 753.99
  A 1.78 1.75 66.0 0 1 535.65 753.65
  Q 534.74 752.97 533.67 753.28
  A 1.29 1.23 43.7 0 1 532.94 753.28
  C 529.30 752.20 527.10 749.93 523.88 748.64
  C 516.72 745.78 509.64 742.75 503.11 738.94
  A 4.99 4.97 2.6 0 1 501.11 736.76
  Q 499.21 732.78 497.20 728.52
  Q 496.22 726.44 494.85 724.90
  Q 493.85 723.78 493.05 722.31
  C 489.40 715.60 483.80 709.98 479.84 703.46
  Q 479.55 702.99 479.92 702.56
  Q 482.78 699.30 485.84 696.12
  C 487.97 693.91 490.60 693.41 493.23 692.16
  C 495.47 691.10 497.13 689.13 499.44 688.27
  C 500.47 687.89 501.47 687.67 502.23 686.82
  Q 504.24 684.53 506.11 681.91
  Q 506.48 681.39 507.07 681.63
  Q 510.99 683.26 515.19 683.48
  Q 516.94 683.57 518.65 684.59
  Q 526.71 689.41 535.57 691.07
  Q 539.45 691.80 543.86 692.47
  Q 548.07 693.12 552.35 693.08
  Q 563.66 692.99 575.20 692.90
  A 1.75 1.74 68.2 0 1 576.51 693.47
  Q 583.82 701.59 591.64 710.57
  C 594.04 713.33 596.06 716.43 597.89 719.53
  Q 602.87 727.95 607.27 735.64
  C 608.27 737.38 609.58 738.68 611.14 739.88
  Q 619.82 746.55 634.08 757.00
  Q 639.48 760.95 644.49 763.17
  Q 652.21 766.58 658.93 768.78
  Q 666.54 771.28 672.18 773.94
  Q 678.73 777.03 685.56 780.31
  A 1.08 1.07 -75.7 0 1 686.17 781.34
  L 684.76 804.65
  Q 684.72 805.28 684.12 805.09
  Q 668.26 800.17 651.35 796.12
  Q 646.61 794.98 642.33 795.03
  Q 632.95 795.13 625.00 795.23
  C 623.18 795.26 621.49 794.84 619.82 794.11
  Q 583.44 778.07 546.20 761.60
  A 1.54 1.54 0.0 0 1 545.58 759.28
  L 546.17 758.46
  Q 547.10 757.18 548.58 757.74
  L 554.47 760.01
  Q 555.21 760.29 555.85 759.81
  Q 556.45 759.35 557.00 759.89
  Q 557.67 760.56 558.46 760.98
  Q 563.43 763.60 568.36 766.30
  C 570.06 767.23 571.96 767.46 573.41 768.10
  Q 581.88 771.85 590.57 775.63
  Q 590.64 775.66 597.09 778.89
  Q 602.71 781.70 607.28 782.78
  Q 611.06 783.67 615.44 786.11
  A 1.38 1.38 0.0 0 0 616.55 786.22
  Q 618.04 785.75 619.35 784.52
  A 0.43 0.42 49.8 0 0 619.39 783.95
  Z
  M 603.98 758.15
  A 0.58 0.58 0.0 0 0 604.75 757.89
  L 607.24 752.99
  A 0.58 0.58 0.0 0 0 606.97 752.20
  L 574.27 736.66
  A 0.58 0.58 0.0 0 0 573.51 736.93
  L 571.00 741.91
  A 0.58 0.58 0.0 0 0 571.27 742.69
  L 603.98 758.15
  Z
  M 589.3335 754.6822
  A 0.40 0.40 0.0 0 0 589.1401 754.1506
  L 574.8385 747.4817
  A 0.40 0.40 0.0 0 0 574.3069 747.6752
  L 573.3265 749.7778
  A 0.40 0.40 0.0 0 0 573.5199 750.3094
  L 587.8215 756.9783
  A 0.40 0.40 0.0 0 0 588.3531 756.7848
  L 589.3335 754.6822
  Z"
/>
<path fill="#ffffff" d="
  M 646.11 686.71
  Q 646.67 687.16 646.42 687.77
  Q 644.87 691.70 642.57 695.50
  C 641.83 696.72 641.88 697.88 640.85 699.03
  Q 634.78 705.77 630.33 709.35
  Q 629.03 710.39 627.86 709.05
  Q 627.07 708.15 626.89 707.00
  C 626.67 705.57 626.07 704.45 626.28 702.98
  Q 627.06 697.56 626.66 691.83
  Q 626.34 687.09 629.74 684.09
  Q 630.18 683.71 630.63 684.07
  Q 632.06 685.23 632.73 686.94
  A 1.32 1.32 0.0 0 0 634.58 687.63
  L 636.43 686.66
  A 1.73 1.65 -53.2 0 1 637.45 686.49
  Q 638.98 686.73 639.91 685.55
  A 1.31 1.31 0.0 0 1 641.35 685.12
  Q 642.46 685.48 643.46 684.97
  Q 643.98 684.70 644.53 684.92
  Q 645.33 685.24 645.65 686.07
  Q 645.79 686.45 646.11 686.71
  Z"
/>
<path fill="#ffffff" d="
  M 708.33 714.68
  Q 707.84 715.27 707.20 715.56
  A 0.71 0.70 -10.7 0 1 706.21 714.89
  L 706.35 711.92
  A 0.67 0.67 0.0 0 0 705.54 711.24
  Q 704.99 711.36 704.49 711.12
  Q 703.94 710.86 703.97 710.21
  C 704.17 705.06 703.60 700.00 707.64 696.13
  Q 708.01 695.78 708.52 695.71
  Q 711.72 695.29 714.77 694.73
  Q 717.24 694.28 718.59 693.16
  C 720.44 691.65 721.59 689.13 723.65 688.16
  Q 724.84 687.61 725.97 686.75
  Q 726.51 686.34 726.59 687.02
  Q 726.89 689.71 725.94 691.79
  Q 725.72 692.28 725.77 692.82
  Q 725.86 693.74 725.54 694.55
  Q 724.27 697.71 722.71 701.07
  C 720.68 705.43 717.85 709.18 714.81 712.88
  Q 713.02 715.06 710.23 716.00
  Q 709.81 716.14 709.62 715.73
  L 709.19 714.80
  Q 708.85 714.06 708.33 714.68
  Z"
/>
<path fill="#ffffff" d="
  M 777.64 814.60
  Q 775.06 811.14 773.36 807.35
  Q 766.35 791.74 757.95 777.18
  Q 756.83 775.24 755.29 773.99
  Q 753.92 772.88 753.15 771.18
  Q 749.24 762.52 742.64 754.36
  A 0.78 0.77 -26.5 0 0 741.85 754.10
  Q 740.48 754.46 739.27 755.37
  Q 738.81 755.72 739.18 756.15
  Q 739.82 756.89 740.27 757.76
  Q 744.27 765.46 747.24 773.49
  Q 748.19 776.06 750.04 778.23
  Q 754.79 783.81 759.12 790.02
  Q 759.51 790.59 759.01 791.08
  L 758.16 791.90
  Q 757.59 792.44 756.94 792.00
  Q 755.65 791.11 754.35 790.23
  C 751.56 788.33 743.48 792.97 740.96 794.66
  C 737.32 797.10 733.64 799.42 729.24 800.02
  Q 728.73 800.08 728.28 799.85
  Q 725.74 798.50 723.18 796.91
  C 722.51 796.49 722.03 796.54 721.29 796.64
  Q 720.76 796.71 720.31 796.42
  Q 712.29 791.39 703.73 786.14
  C 702.75 785.54 702.17 784.15 700.78 784.13
  Q 698.25 784.09 695.61 783.85
  A 1.03 1.02 82.8 0 1 694.74 783.17
  C 693.62 779.94 693.96 776.48 692.25 773.49
  Q 688.82 767.52 685.52 762.38
  C 684.98 761.54 683.67 761.01 682.75 760.74
  Q 681.37 760.33 680.40 762.81
  Q 679.85 764.21 678.55 763.46
  L 673.44 760.54
  A 2.14 2.14 0.0 0 1 672.50 757.94
  C 673.94 754.04 676.04 750.44 679.00 747.59
  C 681.24 745.43 685.87 740.53 686.24 737.21
  Q 687.11 729.44 687.92 723.11
  Q 688.11 721.68 687.89 720.26
  A 0.98 0.97 62.2 0 1 688.14 719.43
  C 689.15 718.32 690.49 717.77 692.00 718.26
  C 695.77 719.48 699.18 721.31 702.97 722.51
  Q 705.50 723.31 707.74 724.91
  Q 716.99 731.53 725.71 737.47
  Q 728.23 739.18 732.52 739.75
  Q 733.03 739.82 733.47 739.56
  C 734.45 738.97 735.49 738.40 736.22 737.48
  Q 739.94 732.76 740.60 728.20
  Q 740.99 725.47 739.61 718.75
  A 1.49 1.45 11.4 0 0 738.97 717.81
  Q 735.20 715.32 735.13 712.35
  Q 734.88 700.76 735.59 689.27
  A 1.38 1.38 0.0 0 1 737.47 688.07
  L 748.23 692.20
  A 1.47 1.47 0.0 0 1 749.16 693.70
  C 748.96 695.91 749.27 698.32 748.53 700.46
  Q 747.28 704.06 746.05 707.29
  Q 745.95 707.57 746.24 707.76
  A 0.62 0.61 -54.3 0 0 747.06 707.62
  C 748.67 705.52 750.31 706.01 752.20 704.76
  Q 754.17 703.46 757.59 703.88
  Q 758.96 704.05 760.20 705.46
  Q 761.99 707.51 763.87 709.50
  Q 766.12 711.88 767.01 714.47
  Q 767.98 717.27 769.31 719.58
  Q 772.35 724.88 774.76 730.90
  C 775.50 732.74 776.85 734.31 777.32 736.16
  C 777.96 738.67 779.50 740.77 780.02 743.26
  Q 781.61 750.97 783.51 758.99
  Q 786.15 770.14 787.74 780.20
  C 788.01 781.86 788.81 783.53 789.31 785.15
  Q 789.46 785.67 789.99 785.80
  Q 791.15 786.09 792.24 785.87
  A 1.06 1.05 -13.5 0 1 793.47 786.62
  C 795.36 793.40 798.51 799.78 800.84 806.25
  A 3.42 3.40 -43.1 0 1 800.75 808.78
  L 791.00 830.72
  Q 790.48 831.88 789.35 831.28
  C 786.83 829.95 785.84 831.58 783.64 831.98
  Q 776.16 833.34 767.96 832.94
  Q 766.22 832.86 764.60 833.64
  Q 761.43 835.17 757.99 836.62
  C 755.76 837.57 750.76 834.83 748.71 833.76
  Q 747.05 832.90 745.09 832.61
  C 743.23 832.34 741.80 831.20 739.97 830.71
  Q 730.57 828.16 721.08 826.92
  Q 720.56 826.85 720.78 826.37
  Q 721.07 825.78 721.75 825.53
  C 723.64 824.85 725.58 824.71 727.17 823.37
  Q 731.24 819.96 735.73 816.97
  Q 736.22 816.64 736.14 816.06
  Q 735.91 814.41 735.00 813.12
  Q 734.75 812.78 735.11 812.54
  Q 736.73 811.47 736.77 809.71
  Q 736.79 809.15 737.24 808.82
  Q 738.42 807.97 739.68 808.02
  A 0.65 0.64 80.9 0 1 740.25 808.44
  Q 741.03 810.50 743.44 810.00
  Q 745.96 809.47 748.04 810.37
  C 750.88 811.61 754.01 811.85 756.79 810.47
  Q 758.81 809.47 760.74 809.43
  Q 764.20 809.38 768.07 809.09
  Q 768.95 809.02 769.61 809.55
  Q 772.08 811.53 773.00 813.83
  Q 773.41 814.84 774.48 814.97
  L 777.22 815.31
  Q 778.27 815.44 777.64 814.60
  Z
  M 707.42 749.40
  Q 707.79 748.00 708.27 746.59
  Q 708.50 745.92 707.79 745.96
  C 705.66 746.07 703.85 744.91 701.75 745.36
  Q 698.00 746.16 694.80 747.67
  Q 694.20 747.96 694.15 748.62
  C 693.95 750.92 693.43 756.01 696.11 757.11
  Q 700.86 759.07 704.98 755.80
  C 706.92 754.26 706.83 751.60 707.42 749.40
  Z"
/>
<path fill="#ffffff" d="
  M 402.09 728.82
  A 50.73 0.73 -13.2 0 1 408.79 727.28
  Q 427.96 722.93 444.64 719.45
  Q 446.92 718.98 448.71 718.52
  C 451.46 717.82 452.94 718.88 455.42 718.96
  Q 456.32 718.99 455.55 719.45
  Q 452.95 721.01 449.48 721.78
  Q 423.31 727.57 402.19 732.38
  Q 398.70 733.18 395.05 731.31
  Q 394.57 731.06 395.08 730.89
  Q 399.51 729.41 402.09 728.82
  Z"
/>
<ellipse fill="#ffffff" cx="0.00" cy="0.00" transform="translate(404.81,742.37) rotate(-36.4)" rx="12.87" ry="1.97"/>
<path fill="#ffffff" d="
  M 705.25 793.90
  Q 706.27 794.99 707.34 796.13
  C 708.81 797.69 709.55 800.01 711.25 801.08
  Q 714.19 802.92 717.14 805.38
  Q 717.83 805.95 717.15 806.53
  L 714.91 808.45
  A 1.02 1.01 42.2 0 1 713.66 808.51
  Q 712.28 807.53 710.67 807.98
  Q 706.30 809.20 701.61 810.70
  A 0.56 0.56 0.0 0 1 700.93 810.39
  Q 699.06 805.98 698.31 801.39
  Q 698.19 800.69 698.52 800.06
  L 702.94 791.64
  A 0.78 0.77 24.3 0 1 703.91 791.28
  Q 704.64 791.57 704.66 792.44
  Q 704.67 793.28 705.25 793.90
  Z"
/>
<path fill="#ffffff" d="
  M 681.74 813.28
  Q 688.62 816.59 694.80 818.68
  Q 695.14 818.79 695.49 818.86
  A 0.77 0.77 0.0 0 1 696.12 819.70
  L 695.59 824.17
  A 1.41 1.41 0.0 0 1 693.64 825.29
  Q 686.98 822.44 679.31 819.10
  C 677.09 818.14 674.95 817.25 673.78 814.88
  Q 673.04 813.39 671.51 812.72
  Q 658.73 807.12 647.10 802.31
  Q 646.16 801.92 647.13 801.60
  C 649.14 800.92 650.93 799.84 653.09 800.69
  Q 667.53 806.42 681.74 813.28
  Z"
/>
<path fill="#ffffff" d="
  M 810.56 832.62
  Q 807.20 834.90 803.25 835.73
  A 0.39 0.39 0.0 0 1 802.85 835.14
  C 804.27 833.01 805.32 830.84 806.28 828.47
  Q 807.70 824.97 810.66 822.70
  C 812.47 821.31 814.71 822.47 814.07 824.83
  Q 813.74 826.07 813.41 827.30
  Q 813.26 827.85 813.45 828.39
  C 814.34 830.96 812.18 831.51 810.56 832.62
  Z"
/>
</svg>
